<?xml version="1.0" encoding="UTF-8" standalone="no"?>
<svg
   xmlns:dc="http://purl.org/dc/elements/1.1/"
   xmlns:cc="http://creativecommons.org/ns#"
   xmlns:rdf="http://www.w3.org/1999/02/22-rdf-syntax-ns#"
   xmlns:svg="http://www.w3.org/2000/svg"
   xmlns="http://www.w3.org/2000/svg"
   id="svg3733"
   version="1.1"
   viewBox="0 0 210 297"
   height="297mm"
   width="210mm">
  <defs
     id="defs3727" />
  <metadata
     id="metadata3730">
    <rdf:RDF>
      <cc:Work
         rdf:about="">
        <dc:format>image/svg+xml</dc:format>
        <dc:type
           rdf:resource="http://purl.org/dc/dcmitype/StillImage" />
        <dc:title></dc:title>
      </cc:Work>
    </rdf:RDF>
  </metadata>
  <g
     id="layer1">
    <path
       d="m 18.21912,48.92349 c -1.71488,-2.490782 -3.440454,-4.966597 -4.802542,-7.677552 -1.129833,-2.223022 -1.414547,-4.654307 -1.581794,-7.10274 -0.113477,-1.926897 -0.135703,-3.847642 0.149708,-5.75819 0.450152,-2.16105 1.566244,-4.127511 2.690395,-6.005207 1.534603,-2.213081 2.783346,-4.601189 4.17553,-6.901427 1.186809,-1.768495 2.474397,-3.482123 3.839692,-5.117841 1.143408,-1.3206535 2.807418,-1.8011033 4.357671,-2.4650492 4.845301,-1.4968228 10.36969,-1.6931418 14.803654,0.81812 1.807078,1.040071 3.374109,2.3956502 4.947732,3.7507382 1.591522,1.237797 3.203186,2.468119 4.629711,3.8975 1.715474,1.640756 3.046857,3.567146 4.1593,5.652065 0.871694,1.792947 1.573803,3.62805 1.941984,5.588442 0.246898,1.762051 0.244086,3.550182 0.23981,5.326356 -0.04281,1.792028 -0.02976,3.563324 0.202726,5.340011 0.469056,1.752341 0.907431,3.502073 1.106821,5.307312 0.164238,1.746488 0.188397,3.501596 0.20283,5.254418 0.0038,1.053852 0.0027,0.529212 0.0035,1.573917 0,0 -9.695767,-5.3e-4 -9.695767,-5.3e-4 v 0 c 0.0021,-1.041021 0.0016,-0.518514 0.0016,-1.567516 -0.0065,-1.716283 -0.01381,-3.436146 -0.185812,-5.145576 -0.230113,-1.794603 -0.66938,-3.537869 -1.105151,-5.291842 -0.254072,-1.818547 -0.230569,-3.632234 -0.199705,-5.466545 -0.01701,-1.717657 0.0063,-3.445698 -0.257292,-5.148173 C 47.487485,25.929917 46.810445,24.187027 45.977656,22.493613 44.863903,20.491778 43.483199,18.686498 41.783759,17.13978 40.319195,15.790467 38.769774,14.536518 37.205951,13.304661 35.630606,12.021731 34.081738,10.697423 32.257037,9.7707862 31.542849,9.4435871 31.194758,9.2392258 30.432094,9.0607244 30.164767,8.9981571 29.341963,8.9529514 29.616431,8.9462942 c 15.75856,-0.3822115 10.367317,-0.3511121 7.040322,0.094706 -3.013951,1.1456618 1.323594,-0.5362247 -1.57688,0.6961259 -0.948907,0.4031699 -1.993786,0.5325449 -2.742702,1.3246859 -1.43727,1.520009 -2.62182,3.284617 -3.882163,4.949687 -1.43906,2.27097 -2.671883,4.667001 -4.166947,6.90283 -1.110164,1.722469 -2.134951,3.618524 -2.626053,5.614906 -0.278192,1.84473 -0.287297,3.687926 -0.184413,5.552127 0.139381,2.319354 0.443705,4.610563 1.510084,6.713437 1.376588,2.665098 3.018697,5.164315 4.938859,7.472752 0,0 -9.707408,0.655992 -9.707408,0.655992 z"
       id="path3797"
       style="fill:#0000ff;fill-opacity:1;stroke:#0076e3;stroke-width:1.06500006;stroke-linecap:round;stroke-linejoin:bevel;stroke-miterlimit:4;stroke-dasharray:none;stroke-dashoffset:0;stroke-opacity:1" />
    <path
       d="m 27.43885,32.413508 c 3.311392,0.01781 6.622859,0.01429 9.934286,0.01635 3.274124,-0.0016 6.548247,-0.0037 9.822368,-0.0083 1.541708,-2.65e-4 3.083417,-0.0024 4.625128,-0.0043 0,0 -9.537581,1.510605 -9.537581,1.510605 v 0 c -1.52364,-0.0019 -3.04728,-0.0039 -4.570923,-0.0043 -3.239354,-0.0046 -6.478717,-0.0067 -9.718074,-0.0083 -3.380289,0.0021 -6.760613,-0.0011 -10.140867,0.01635 0,0 9.585663,-1.518219 9.585663,-1.518219 z"
       id="path3799"
       style="fill:#0000ff;fill-opacity:1;stroke:#0076e3;stroke-width:1.06500006;stroke-linecap:round;stroke-linejoin:bevel;stroke-miterlimit:4;stroke-dasharray:none;stroke-dashoffset:0;stroke-opacity:1" />
    <path
       d="M 85.1209,10.36992 C 83.201954,8.3890132 80.22863,7.8103105 77.627231,7.2273373 75.362887,6.763953 73.047407,6.7014518 70.744534,6.6813403 c -4.822629,-0.00196 6.935804,0.00279 7.587337,0.00333 0.303131,2.509e-4 -0.606258,0.00159 -0.909388,0.00262 -0.955265,0.00328 -1.910519,0.00867 -2.865776,0.013692 -1.649947,-0.057629 -3.224247,0.021836 -4.286264,1.4022258 -0.774266,1.4634791 -0.780528,3.1441219 -0.834945,4.7589169 -0.0276,1.891086 0.0074,3.782359 0.02633,5.673374 0.05795,2.264936 1.419016,4.017444 2.695704,5.768909 1.48344,1.741921 3.424672,2.388987 5.606653,2.717658 3.821695,0.309067 12.41838,0.147135 -4.370892,0.142793 2.093783,-0.01625 4.187587,-0.02506 6.281428,-0.0292 2.333225,-0.0051 4.666458,-0.01037 6.999689,-0.008 3.942599,0.0049 7.885493,-0.04541 11.827849,-7.94e-4 1.407364,0.01595 2.149541,0.465894 2.839971,1.629624 0.87112,1.523887 1.16116,3.242265 1.30326,4.966084 0.081,1.802154 0.19772,3.613941 0.0128,5.411319 -0.51873,2.44616 -1.48028,4.805135 -2.41198,7.125258 -0.796534,1.866609 -2.003488,3.4559 -3.600929,4.694058 -1.647061,1.245669 -3.575329,1.981255 -5.516652,2.627664 -4.704678,1.336085 -9.708573,0.665298 -14.515611,0.628497 -2.323581,-0.39882 -4.034451,-2.338033 -5.538292,-4.014192 -1.578629,-1.533856 -2.88611,-3.314211 -3.773755,-5.32814 -0.403524,-1.140547 -0.469596,-2.35009 -0.745077,-3.518995 0,0 9.690745,-0.205134 9.690745,-0.205134 v 0 c 0.217281,1.109096 0.301562,2.251117 0.726961,3.30972 0.897176,1.8928 2.179082,3.547811 3.664017,5.021712 1.55412,1.588855 3.214356,3.202991 5.564653,3.29914 -16.951497,0.09944 -8.446085,0.423569 -4.65958,-0.421825 1.91239,-0.52742 3.83757,-1.187127 5.481838,-2.317726 1.595885,-1.03006 2.79472,-2.417588 3.573696,-4.165793 0.997056,-2.177447 1.912951,-4.490204 2.386698,-6.832103 0.173397,-1.734439 0.0717,-3.486314 -0.0157,-5.224293 -0.15957,-1.548069 -0.389397,-3.11948 -1.317208,-4.419179 -0.535282,-0.474898 -0.987682,-0.633092 -1.714429,-0.710065 -0.316217,-0.03349 -1.27072,-0.04615 -0.952738,-0.04824 0.0556,-2.64e-4 12.403283,-7.93e-4 7.199257,-5.29e-4 -2.337748,0.003 -4.675502,-0.0016 -7.013263,0.0035 -2.072301,0.0064 -4.144597,0.01569 -6.216803,0.03752 -4.797219,0.0026 -9.913983,0.368983 -14.758239,-0.324604 -2.269352,-0.538207 -4.195834,-1.541814 -5.635511,-3.44452 -1.375923,-1.921136 -2.698298,-3.920275 -2.782702,-6.364044 -0.0049,-1.900697 -0.01384,-3.801447 5.29e-4,-5.702123 0.02432,-1.797096 0.07087,-3.6225698 0.816554,-5.2938681 1.092034,-1.9371884 2.199691,-2.4002365 4.411451,-2.3527237 5.09225,-0.020585 10.185048,-0.076942 15.277097,-0.00505 2.295557,0.061002 4.598959,0.2081623 6.835571,0.7682529 2.766423,0.7309998 5.760354,1.51882 7.709452,3.7578392 0,0 -9.707392,0.6559947 -9.707392,0.6559947 z"
       id="path3801"
       style="fill:#0000ff;fill-opacity:1;stroke:#0076e3;stroke-width:1.06500006;stroke-linecap:round;stroke-linejoin:bevel;stroke-miterlimit:4;stroke-dasharray:none;stroke-dashoffset:0;stroke-opacity:1" />
    <path
       d="m 123.76385,10.763876 c -0.0733,2.30378 -0.0418,4.609464 -0.0263,6.913955 0.0152,1.84813 0.007,3.696285 0.0125,5.544465 -0.11494,1.789174 0.22076,3.544469 0.45659,5.308712 0.40939,1.68456 0.90053,3.35521 1.44752,5.001408 0.78729,1.589511 1.34709,3.246102 1.65807,4.989423 0.28771,1.466424 0.006,2.998546 0.55155,4.404203 0.39795,0.830636 0.65051,1.708695 0.85748,2.602135 0,0 -9.70938,0.231434 -9.70938,0.231434 v 0 c -0.22061,-0.863785 -0.5108,-1.699644 -0.85222,-2.523778 -0.42664,-1.48794 -0.3105,-3.016436 -0.5395,-4.53951 -0.3156,-1.698011 -0.92428,-3.286476 -1.6304,-4.859983 -0.54406,-1.708671 -1.11541,-3.417908 -1.46308,-5.178861 -0.23304,-1.805268 -0.56163,-3.606264 -0.45412,-5.435183 0.005,-1.84818 -0.003,-3.696335 0.0125,-5.544465 0.0155,-2.304491 0.047,-4.610175 -0.0263,-6.913955 0,0 9.70515,0 9.70515,0 z"
       id="path3803"
       style="fill:#0000ff;fill-opacity:1;stroke:#0076e3;stroke-width:1.06500006;stroke-linecap:round;stroke-linejoin:bevel;stroke-miterlimit:4;stroke-dasharray:none;stroke-dashoffset:0;stroke-opacity:1" />
    <path
       d="m 116.49729,7.4682757 c 3.6688,0.020971 7.33768,0.018124 11.00652,0.014496 2.72433,-0.044496 5.42632,-0.0677 8.13184,0.2564154 0.36387,0.043564 0.73514,0.045695 1.09162,0.1306925 0.70609,0.168357 1.36198,0.503333 2.05041,0.733502 1.0053,0.3361105 2.02474,0.5607817 3.02543,0.9112559 1.97042,0.5458445 3.64795,1.7164485 5.33307,2.8245875 1.89776,1.222603 3.68944,2.619107 5.45766,4.024208 1.65442,1.27971 3.21343,2.760869 4.43338,4.469625 1.34656,1.57281 1.87896,3.463129 2.41644,5.403101 0.49861,1.698488 0.72323,3.450413 0.84263,5.210765 0.0625,1.745772 0.0644,3.492955 0.067,5.239618 0.0892,1.739937 0.008,3.380772 -0.66162,5.001726 -0.91037,1.721577 -2.75252,2.437961 -4.41191,3.251994 -1.8737,0.85027 -3.70304,1.798743 -5.65034,2.470189 -2.27006,0.575966 -4.5685,1.039429 -6.88818,1.361508 -2.22341,0.279562 -4.46942,0.266126 -6.70625,0.27854 -5.48554,0.01841 -10.97111,0.0027 -16.45666,-1.6e-4 -1.67676,-5.3e-4 -3.35353,-2.65e-4 -5.03029,-2.01e-4 -1.55168,0.150619 -3.02789,-0.163955 -4.54355,-0.422455 -0.98874,-0.15848 -1.97431,-0.158936 -2.93669,-0.439061 0,0 9.6229,-1.316598 9.6229,-1.316598 v 0 c 0.97268,0.130289 1.95076,0.220935 2.91675,0.398846 1.50059,0.250518 2.99643,0.322353 4.51843,0.262528 1.66398,0.0011 3.32796,0.0029 4.99193,0.0076 1.07172,0.0028 2.14344,0.0062 3.21516,0.0079 0.40286,5.29e-4 1.61142,0.0011 1.20857,0.0011 -5.25767,0.0024 -11.58703,0.0016 -6.99359,0.0021 2.21315,-0.0069 4.43179,0.01349 6.63883,-0.173683 2.3196,-0.249439 4.59587,-0.710584 6.87651,-1.192067 1.97451,-0.53091 3.74953,-1.510345 5.62094,-2.316901 1.48305,-0.740145 3.24778,-1.300379 4.32995,-2.590927 0.72782,-1.468078 0.70644,-2.979018 0.65144,-4.592772 0.005,-1.724777 0.0212,-3.45127 -0.072,-5.174216 -0.11127,-1.694447 -0.32609,-3.380247 -0.81124,-5.013706 -0.51044,-1.835086 -1.10772,-3.575092 -2.39223,-5.041043 -1.27288,-1.591935 -2.77322,-3.010043 -4.41269,-4.220809 -1.76514,-1.370698 -3.51057,-2.783532 -5.4286,-3.937649 -1.67639,-1.064518 -3.39338,-2.050961 -5.32738,-2.574358 -2.01302,-0.607014 -4.00898,-1.3835238 -6.11302,-1.5802969 -2.65798,-0.2529355 -5.32511,-0.1523148 -7.99217,-0.1740765 -3.72986,-0.00373 -7.45976,-0.00592 -11.18958,0.014497 0,0 9.57057,-1.5158297 9.57057,-1.5158297 z"
       id="path3805"
       style="fill:#0000ff;fill-opacity:1;stroke:#0076e3;stroke-width:1.06500006;stroke-linecap:round;stroke-linejoin:bevel;stroke-miterlimit:4;stroke-dasharray:none;stroke-dashoffset:0;stroke-opacity:1" />
  </g>
</svg>
